<?xml version="1.0" encoding="UTF-8" standalone="no"?>
<svg
   xmlns:dc="http://purl.org/dc/elements/1.1/"
   xmlns:cc="http://creativecommons.org/ns#"
   xmlns:rdf="http://www.w3.org/1999/02/22-rdf-syntax-ns#"
   xmlns:svg="http://www.w3.org/2000/svg"
   xmlns="http://www.w3.org/2000/svg"
   xmlns:sodipodi="http://sodipodi.sourceforge.net/DTD/sodipodi-0.dtd"
   xmlns:inkscape="http://www.inkscape.org/namespaces/inkscape"
   width="691.09167mm"
   height="667.81738mm"
   viewBox="0 0 691.09167 667.81738"
   version="1.1"
   id="svg2073"
   inkscape:version="1.0.1 (3bc2e813f5, 2020-09-07)"
   sodipodi:docname="Back.svg">
  <defs
     id="defs2067" />
  <sodipodi:namedview
     id="base"
     pagecolor="#ffffff"
     bordercolor="#666666"
     borderopacity="1.0"
     inkscape:pageopacity="0.0"
     inkscape:pageshadow="2"
     inkscape:zoom="0.35"
     inkscape:cx="400"
     inkscape:cy="1017.1429"
     inkscape:document-units="mm"
     inkscape:current-layer="layer1"
     inkscape:document-rotation="0"
     showgrid="false"
     fit-margin-top="0"
     fit-margin-left="0"
     fit-margin-right="0"
     fit-margin-bottom="0"
     inkscape:window-width="1267"
     inkscape:window-height="1041"
     inkscape:window-x="26"
     inkscape:window-y="0"
     inkscape:window-maximized="0" />
  <metadata
     id="metadata2070">
    <rdf:RDF>
      <cc:Work
         rdf:about="">
        <dc:format>image/svg+xml</dc:format>
        <dc:type
           rdf:resource="http://purl.org/dc/dcmitype/StillImage" />
        <dc:title></dc:title>
      </cc:Work>
    </rdf:RDF>
  </metadata>
  <g
     inkscape:label="Layer 1"
     inkscape:groupmode="layer"
     id="layer1">
    <path
       style="fill:#1d0a52;fill-opacity:1;stroke-width:0.264582"
       d="M 0,333.90417 V 0 H 345.54589 691.09167 V 333.90417 667.80836 H 567.39898 c -68.03101,0 -123.6927,-0.0571 -123.6927,-0.12703 0,-0.0698 0.7325,-0.93305 1.62779,-1.91823 2.4035,-2.64467 6.06031,-7.15388 8.9625,-11.05162 2.2226,-2.985 3.44522,-4.77972 6.2185,-9.12812 1.35311,-2.12151 4.7766,-8.44651 6.26912,-11.58222 3.29837,-6.92975 5.43618,-12.80839 8.57617,-23.58257 1.42862,-4.9022 1.47432,-5.15065 1.0101,-5.49011 -0.26738,-0.19552 -0.67209,-0.35552 -0.89929,-0.35552 -1.12929,0 -11.58039,-2.95037 -20.78469,-5.86756 -15.98781,-5.06714 -30.98281,-11.90323 -45.82339,-20.89041 -7.46991,-4.52363 -12.88442,-8.34694 -18.73491,-13.22919 -3.26602,-2.72545 -11.95412,-11.2299 -14.4889,-14.18273 -1.0323,-1.2025 -2.0084,-2.18636 -2.16911,-2.18636 -0.1606,0 -1.002,0.92274 -1.86978,2.05052 -1.60621,2.08749 -5.18412,6.26102 -10.00983,11.6762 -5.58667,6.2692 -10.25257,12.85232 -12.8678,18.15557 -1.81009,3.67054 -5.564,13.65965 -6.18958,16.47032 -0.23482,1.05502 -0.60312,2.7219 -0.81851,3.70416 -1.4505,6.61668 -2.82409,18.5024 -3.3324,28.83602 -0.42011,8.53993 -0.17741,30.30767 0.38571,34.59784 0.5907,4.49982 0.7163,4.10104 -1.29191,4.10104 -0.94589,0 -1.72231,-0.0298 -1.7254,-0.0661 0,-0.0364 -0.19339,-1.4949 -0.4231,-3.24115 -0.60611,-4.60785 -0.8129,-27.03764 -0.333,-36.11562 0.38071,-7.2022 0.37441,-9.54982 -0.034,-12.7 -0.1415,-1.09141 -0.31851,-2.57969 -0.3933,-3.3073 -0.30189,-2.93803 -0.4395,-4.0283 -0.66789,-5.29166 -0.13161,-0.72761 -0.37121,-2.09683 -0.5324,-3.04271 -0.7893,-4.62799 -2.5355,-11.38103 -4.00251,-15.47813 -3.81619,-10.65863 -6.54709,-16.50357 -11.82769,-25.31512 -7.2348,-12.07254 -9.85959,-15.46675 -20.01272,-25.87958 -9.4212,-9.66219 -12.21988,-13.02808 -17.71179,-21.30116 -5.03219,-7.58078 -8.1408,-13.23109 -10.44411,-18.98382 -0.6264,-1.56435 -1.28759,-2.84427 -1.46939,-2.84427 -0.1819,0 -2.58101,0.64494 -5.3315,1.43316 -11.1397,3.19257 -20.0242,4.65776 -31.3952,5.1775 -11.8468,0.54147 -24.3372,-0.69696 -32.8668,-3.2589 -1.1642,-0.34962 -2.2557,-0.58301 -2.4255,-0.51861 -0.3273,0.12407 -2.2001,2.84568 -3.3304,4.83976 -4.1934,7.39818 -8.4727,18.43506 -10.4979,27.07556 -1.7836,7.61002 -2.4288,18.60669 -1.7489,29.80983 0.084,1.38248 0.2115,2.93026 0.2837,3.43961 0.072,0.50933 0.2494,2.10193 0.3938,3.53912 1.1497,11.44265 4.625,23.70461 11.1824,39.45567 8.8061,21.1526 19.3698,38.60782 31.1203,51.42262 1.751,1.90963 4.0264,4.54044 5.0565,5.84629 1.0301,1.30582 2.6115,3.03313 3.5142,3.83844 l 1.6414,1.46423 H 116.74737 L 0,667.80802 Z m 527.57917,268.43889 c 13.5913,-1.24711 26.38991,-3.60979 37.49881,-6.92248 8.7177,-2.59963 16.43989,-5.94093 26.065,-11.27794 1.563,-0.86667 2.94241,-1.53575 3.06531,-1.4868 0.1229,0.0489 0.94779,0.93451 1.83298,1.96792 2.07121,2.41771 5.31281,4.6374 8.28122,5.67055 1.99109,0.69297 2.5831,0.77819 5.4279,0.78134 3.67318,0.004 5.0555,-0.31779 8.0704,-1.87915 3.74568,-1.9398 6.30899,-4.88027 7.97899,-9.15313 0.68371,-1.74924 0.82431,-2.52137 0.9294,-5.10376 0.19119,-4.70072 -0.79881,-7.904 -3.5297,-11.42087 -0.64021,-0.82447 -1.16412,-1.6456 -1.16412,-1.82473 0,-0.17915 2.35252,-2.71928 5.22783,-5.64475 11.84029,-12.04698 20.63078,-23.99813 27.16839,-36.93673 9.28569,-18.37743 14.52449,-37.92816 16.01089,-59.75075 0.35502,-5.21166 0.3555,-17.88533 0,-23.10895 -1.25029,-18.42198 -4.61129,-33.18849 -11.55229,-50.75489 -5.19059,-13.13667 -11.17089,-24.5568 -19.25849,-36.77711 -11.841,-17.89133 -23.73342,-30.81088 -41.56803,-45.15821 -20.40577,-16.41655 -50.04768,-35.21887 -75.77619,-48.06654 -8.8057,-4.39723 -12.39999,-6.08934 -27.91349,-13.14103 -26.2074,-11.91264 -32.596,-15.12581 -40.2369,-20.23722 -6.86771,-4.59417 -11.75369,-8.23357 -11.75369,-8.75482 0,-0.16755 0.056,-0.13257 3.44678,2.16708 5.34921,3.62749 20.64191,11.82957 31.6924,16.99784 4.1906,1.95997 4.81279,2.1555 4.81279,1.51243 0,-0.20926 -0.60018,-3.33465 -1.33379,-6.94531 -3.41788,-16.82245 -6.1056,-25.22026 -11.75459,-36.72821 -2.73441,-5.57043 -5.31111,-9.56234 -8.72371,-13.51517 -5.2782,-6.11372 -16.6397,-12.57881 -26.7244,-15.20715 -4.45611,-1.16139 -7.58769,-1.54859 -15.02431,-1.85767 -13.83808,-0.57515 -20.87128,-0.0447 -38.79879,2.92645 -12.23431,2.02758 -17.1377,2.74894 -24.2435,3.56657 -3.20138,0.36837 -6.77329,0.86337 -7.9375,1.09998 -1.39708,0.28397 -2.7912,0.38256 -4.10099,0.29004 -2.41822,-0.17083 -8.70411,-1.50167 -17.828,-3.77448 -6.50891,-1.62142 -8.36581,-1.95592 -8.36581,-1.50705 0,0.10933 0.62511,0.73388 1.38909,1.38789 6.301,5.39399 14.62482,14.75205 23.0641,25.93 4.98092,6.59717 6.10061,8.23112 9.33792,13.62605 8.64481,14.40665 15.71159,29.54746 19.53188,41.84711 1.5032,4.83992 4.50141,16.018 5.7722,21.52059 1.03542,4.48331 3.55071,17.50393 4.39571,22.75417 2.30151,14.29993 2.35191,34.73614 0.1252,50.6677 -2.04729,14.64744 -5.9899,30.47188 -11.14049,44.71461 -6.69459,18.51248 -13.62879,33.78843 -21.15942,46.61401 -1.28309,2.18532 -2.56958,4.75734 -2.906,5.80958 -0.87079,2.72482 -2.12777,9.68997 -2.52409,13.98683 -0.5012,5.43489 -0.43321,16.32448 0.13141,21.03438 1.99859,16.67147 5.7108,29.13792 12.88191,43.25937 5.96048,11.73753 10.51517,18.81984 18.07178,28.1006 13.6857,16.80837 31.1377,30.09789 54.45651,41.4682 6.52799,3.18305 9.84999,4.62632 15.58949,6.77299 15.3774,5.75143 34.81261,9.62187 54.39101,10.83167 5.68481,0.35129 23.2805,0.12356 28.67099,-0.37105 z M 335.86158,589.59774 c 0.2272,-0.0872 0.665,-0.5661 0.9729,-1.06424 l 0.5597,-0.90569 1.0328,1.06423 c 0.64349,0.66302 1.27349,1.06424 1.67108,1.06424 0.8101,0 1.8093,-1.16809 2.42411,-2.83382 2.34109,-6.34352 4.06281,-9.95175 6.65279,-13.94299 3.3029,-5.08979 9.6066,-13.14725 14.66771,-18.74845 3.1564,-3.49332 7.10322,-8.56655 7.10322,-9.13059 0,-0.19158 -1.11072,-1.92027 -2.46822,-3.84154 -6.68269,-9.45827 -15.7724,-25.91112 -19.7362,-35.72333 -2.9278,-7.24789 -6.00609,-17.54269 -7.4119,-24.78762 -1.87159,-9.64612 -2.08619,-20.80149 -0.63239,-32.8749 0.24088,-2.00115 0.36788,-3.70866 0.2821,-3.79447 -0.36541,-0.36534 -1.3127,0.27893 -2.1047,1.43129 -3.59141,5.22579 -12.11609,14.63485 -17.692,19.52736 -5.26982,4.62397 -11.7452,9.3059 -18.63151,13.47124 -5.50029,3.32689 -21.08168,10.76124 -27.43661,13.09073 -1.64478,0.60294 -3.09808,1.20047 -3.22958,1.32789 -0.58081,0.56293 3.4226,9.7785 6.663,15.33753 3.3373,5.72529 7.92679,12.23391 12.202,17.30401 1.0922,1.2953 5.10149,5.58155 8.90958,9.525 9.17332,9.49939 11.22701,11.94562 15.67821,18.67496 7.2948,11.0282 11.55419,19.37043 16.452,32.22209 1.2669,3.32428 2.33751,4.27263 4.07191,3.60707 z m -3.01569,-47.11256 c -4.18873,-0.4097 -8.39981,-1.2978 -12.56771,-2.65049 -2.22401,-0.72175 -4.2323,-1.6292 -4.0372,-1.82422 0.063,-0.0633 1.5857,0.18436 3.38309,0.55044 1.7974,0.36608 4.64439,0.8505 6.3267,1.07654 6.96311,0.93551 19.89769,0.71514 26.34191,-0.44882 1.60078,-0.28911 3.38669,-0.58544 3.9688,-0.65852 1.04551,-0.13126 1.05029,-0.12795 0.39691,0.27377 -1.10673,0.68029 -5.36253,1.9626 -8.79301,2.64938 -5.01052,1.00303 -11.06321,1.4189 -15.01949,1.03192 z M 238.12497,497.694 c 13.8685,-1.61319 22.9237,-3.68197 35.03459,-8.00423 2.48643,-0.88733 5.35411,-1.99715 6.37271,-2.46628 1.01869,-0.46913 2.8046,-1.24637 3.9688,-1.72718 2.91811,-1.20525 12.0074,-5.85509 16.00732,-8.1889 10.23768,-5.97345 18.83918,-13.02642 27.70007,-22.71305 15.79322,-17.26526 29.53811,-41.71006 40.11602,-71.34538 5.1249,-14.35772 9.77879,-34.07074 11.39971,-48.28645 1.37078,-12.02235 1.17559,-28.85221 -0.5003,-43.12711 -1.72652,-14.70658 -6.54262,-34.18692 -12.29741,-49.74166 -1.17811,-3.18435 -3.99442,-10.13572 -4.2341,-10.45105 -0.1106,-0.14552 -0.4453,-0.91942 -0.7438,-1.71979 -0.82421,-2.21052 -4.6282,-10.30242 -6.5921,-14.02291 -5.41051,-10.2501 -9.58252,-16.78657 -16.4833,-25.82523 -7.98631,-10.46052 -22.08249,-24.32215 -33.6037,-33.04457 -0.7688,-0.58208 -1.7677,-1.36509 -2.21961,-1.74001 -1.1416,-0.94702 -5.73739,-4.21584 -9.71569,-6.91038 -9.88631,-6.69606 -22.14422,-13.43059 -34.26871,-18.82728 -10.6481,-4.73959 -22.5937,-8.52647 -35.9884,-11.40869 -8.824,-1.89874 -13.3681,-2.58141 -27.476,-4.12778 -3.9867,-0.43698 -18.2449,-0.70842 -25.9055,-0.49317 -7.7303,0.21719 -9.524,0.3243 -13.1206,0.78344 -1.0914,0.13933 -3.6512,0.44027 -5.6885,0.66874 -5.6353,0.63197 -9.755,1.34837 -16.0689,2.79427 -10.0092,2.29217 -22.068,6.15882 -28.3811,9.10039 -0.7276,0.33903 -2.6922,1.22873 -4.3656,1.97712 -8.862703,3.96339 -20.664296,11.17243 -28.146601,17.19339 -1.001295,0.80573 -2.236296,1.78747 -2.744497,2.18165 -2.270001,1.76079 -7.200901,6.36181 -11.0685,10.32801 -6.451701,6.61627 -10.129401,11.19325 -14.723801,18.32405 -1.358601,2.10864 -4.549399,8.01657 -6.216002,11.50938 -4.192198,8.78587 -8.083899,19.84028 -10.417299,29.59053 -1.3888,5.80309 -1.9273,8.77535 -3.6986,20.41572 -1.5034,9.87909 -1.6914,31.4494 -0.3634,41.6893 0.4778,3.68467 2.0249,11.69819 3.061499,15.85757 3.1921,12.80911 9.367401,27.80416 16.023701,38.90941 6.1898,10.32709 11.044701,16.67113 18.3232,23.94366 8.099704,8.09299 18.416299,16.02538 31.371303,24.12126 10.115397,6.3214 29.127097,16.59091 39.555197,21.36656 2.2556,1.03296 4.6964,2.16131 5.424,2.50743 4.0282,1.91641 11.32,4.91832 19.3146,7.95147 6.8834,2.61165 18.0229,5.8886 26.0614,7.66662 1.819,0.40235 3.4264,0.84508 3.5719,0.98388 0.3204,0.30562 -0.1829,0.22434 -7.1438,-1.15324 -5.1679,-1.0228 -15.7677,-3.63749 -23.3775,-5.76672 -2.7972,-0.78267 -6.1797,-1.41661 -12.8323,-2.40512 -4.9687,-0.73824 -11.058,-1.68442 -13.5318,-2.10262 -6.2236,-1.05198 -11.8009,-1.85486 -12.8852,-1.85486 -0.659,0 -1.2109,0.25742 -2,0.93284 -3.2542,2.78543 -4.2128,9.96755 -2.1484,16.09569 1.6931,5.026 6.6382,12.8736 12.1108,19.21936 3.7288,4.32369 12.8809,13.22486 17.0936,16.62483 0.7276,0.58727 2.2159,1.80041 3.3073,2.69597 5.2502,4.30795 8.626,6.6539 17.5948,12.22717 7.5584,4.69685 13.2818,7.76459 19.8437,10.63619 1.8918,0.82789 3.9159,1.72212 4.498,1.98721 1.9028,0.86651 8.4023,3.11473 11.407,3.94571 3.9392,1.08942 7.2816,1.78569 10.9502,2.28107 1.6735,0.22598 3.6976,0.53719 4.498,0.6916 3.7188,0.71742 18.9824,0.87556 24.3416,0.25217 z m -49.37,-73.87238 c -0.117,-0.18923 -0.073,-0.23363 0.1166,-0.11665 0.305,0.18849 0.4095,0.42211 0.1888,0.42211 -0.064,0 -0.2016,-0.13745 -0.3054,-0.30546 z m -1.5623,-0.22368 c -0.09,-0.14552 0.022,-0.26461 0.249,-0.26461 0.2269,0 0.4125,0.11909 0.4125,0.26461 0,0.14552 -0.112,0.26459 -0.249,0.26459 -0.1369,0 -0.3225,-0.11907 -0.4125,-0.26459 z m -50.0062,-14.29705 c -0.5821,-0.27829 -3.0824,-1.32919 -5.5563,-2.3354 -10.5891,-4.30694 -25.3091,-11.81174 -35.053703,-17.87181 -3.180494,-1.97784 -3.338795,-2.04401 -4.244298,-1.7727 -1.784495,0.53467 -3.4406,3.02939 -3.6447,5.49028 -0.154397,1.86233 0.762205,3.77056 2.684705,5.58877 2.7989,2.64705 6.598895,4.00333 18.632696,6.6503 4.6179,1.01577 10.0279,2.16078 12.0221,2.54442 4.6536,0.89527 13.4862,2.18977 15.0272,2.20234 l 1.1906,0.0101 -1.0583,-0.50589 z M 352.34528,151.9933 c 11.25098,-1.46549 21.6844,-5.68859 30.77139,-12.45519 3.5888,-2.67242 10.17579,-9.25573 12.8098,-12.80269 7.71681,-10.39165 12.08079,-22.32112 12.8424,-35.106436 1.35501,-22.745001 -9.2056,-44.327932 -28.03351,-57.293031 -8.03529,-5.53325 -17.25438,-9.115593 -27.51658,-10.692363 -4.25151,-0.65323 -13.76201,-0.65895 -17.9917,-0.0108 -14.55002,2.22952 -26.63682,8.283353 -36.78991,18.426623 -17.59839,17.58143 -23.4646,43.02225 -15.43709,66.948947 1.2287,3.66247 4.90379,11.10613 7.11938,14.41979 9.75611,14.59174 24.2457,24.33521 41.34162,27.80002 1.78499,0.36177 4.10668,0.75798 5.1594,0.88048 3.36328,0.39139 12.33999,0.32556 15.7248,-0.11533 z m -12.83869,-7.08483 c -0.31652,-0.3368 -0.57531,-0.90329 -0.57531,-1.25887 0,-0.77655 0.9508,-2.61894 2.667,-5.16765 2.11259,-3.13744 3.57931,-3.99512 5.3749,-3.14308 1.18078,0.56035 1.53919,1.12839 2.3686,3.75388 1.02511,3.24501 1.1375,4.57306 0.44879,5.30361 -0.36079,0.38278 -0.87159,0.59531 -1.43079,0.59531 -1.15699,0 -1.8864,-0.82224 -2.3292,-2.62576 -0.19392,-0.78933 -0.49811,-1.48282 -0.6762,-1.54108 -0.17812,-0.0583 -0.79621,0.64708 -1.37361,1.56743 -1.74551,2.78248 -2.08169,3.12858 -3.03908,3.12858 -0.55671,0 -1.06273,-0.21592 -1.4351,-0.61237 z m 0.48299,-16.23858 c -6.97751,-0.73472 -14.50231,-3.48593 -20.4013,-7.45909 -5.4187,-3.64969 -9.05121,-7.28111 -12.69561,-12.6919 -11.26278,-16.721326 -10.273,-39.186165 2.409,-54.676186 1.8097,-2.210321 5.59639,-5.88718 7.80151,-7.575121 7.04638,-5.39386 16.3381,-8.742299 25.3655,-9.14087 22.35909,-0.987208 42.4194,14.840161 46.84051,36.956611 2.1658,10.834219 0.20248,22.686071 -5.31792,32.102266 -6.2966,10.74028 -16.49208,18.3686 -28.52359,21.34142 -1.7462,0.43148 -4.18391,0.90613 -5.417,1.05479 -2.10359,0.2536 -7.99901,0.30521 -10.0611,0.0881 z m 7.03088,-33.014077 c 0.68943,-0.288078 1.06572,-0.698119 1.4614,-1.592858 0.86011,-1.944251 1.36562,-6.7794 1.23143,-11.777541 -0.22072,-8.21795 -1.86003,-11.65553 -4.87302,-10.21869 -2.07989,0.99181 -2.8924,4.850459 -2.65308,12.59994 0.20939,6.77985 1.07569,10.043721 2.90557,10.94595 1.03542,0.51054 0.82071,0.50573 1.9277,0.0432 z"
       id="path1470" />
  </g>
</svg>
