<?xml version="1.0" encoding="UTF-8" standalone="no"?>
<svg
   xmlns:dc="http://purl.org/dc/elements/1.1/"
   xmlns:cc="http://creativecommons.org/ns#"
   xmlns:rdf="http://www.w3.org/1999/02/22-rdf-syntax-ns#"
   xmlns:svg="http://www.w3.org/2000/svg"
   xmlns="http://www.w3.org/2000/svg"
   xmlns:sodipodi="http://sodipodi.sourceforge.net/DTD/sodipodi-0.dtd"
   xmlns:inkscape="http://www.inkscape.org/namespaces/inkscape"
   width="647.91699mm"
   height="644.65802mm"
   viewBox="0 0 647.91699 644.65802"
   version="1.1"
   id="svg899"
   inkscape:version="1.0.1 (3bc2e813f5, 2020-09-07)"
   sodipodi:docname="Front.svg">
  <defs
     id="defs893" />
  <sodipodi:namedview
     id="base"
     pagecolor="#ffffff"
     bordercolor="#666666"
     borderopacity="1.0"
     inkscape:pageopacity="0.0"
     inkscape:pageshadow="2"
     inkscape:zoom="0.35"
     inkscape:cx="839.39073"
     inkscape:cy="1245.7143"
     inkscape:document-units="mm"
     inkscape:current-layer="layer1"
     inkscape:document-rotation="0"
     showgrid="false"
     inkscape:window-width="1267"
     inkscape:window-height="1041"
     inkscape:window-x="-11"
     inkscape:window-y="91"
     inkscape:window-maximized="0" />
  <metadata
     id="metadata896">
    <rdf:RDF>
      <cc:Work
         rdf:about="">
        <dc:format>image/svg+xml</dc:format>
        <dc:type
           rdf:resource="http://purl.org/dc/dcmitype/StillImage" />
        <dc:title></dc:title>
      </cc:Work>
    </rdf:RDF>
  </metadata>
  <g
     inkscape:label="Layer 1"
     inkscape:groupmode="layer"
     id="layer1">
    <path
       style="fill:#b00b69;stroke-width:0.264583;fill-opacity:1"
       d="m 209.05132,643.1916 c -0.9027,-0.80532 -2.4841,-2.53262 -3.5142,-3.83845 -1.0301,-1.30585 -3.3055,-3.93665 -5.0565,-5.84628 -8.8174,-9.61602 -16.3488,-20.8339 -23.5105,-35.01845 -7.867,-15.58161 -13.5904,-30.42696 -16.78,-43.52396 -0.589,-2.41843 -1.7001,-9.23047 -2.0122,-12.33588 -0.1444,-1.43719 -0.3216,-3.0298 -0.3938,-3.53912 -0.072,-0.50935 -0.1998,-2.05714 -0.2837,-3.43961 -0.6798,-11.20315 -0.035,-22.19981 1.749,-29.80984 2.0251,-8.6405 6.3044,-19.67738 10.4978,-27.07555 1.1304,-1.99409 3.0031,-4.7157 3.3304,-4.83976 0.1699,-0.0644 1.2614,0.16899 2.4255,0.51861 8.5296,2.56191 21.02,3.80037 32.8669,3.2589 11.3709,-0.51975 20.2554,-1.98493 31.3951,-5.1775 2.7505,-0.78822 5.1496,-1.43317 5.3315,-1.43317 0.1818,0 0.8431,1.27992 1.4694,2.84427 2.3033,5.75273 5.4119,11.40304 10.4441,18.98383 5.4919,8.27307 8.2906,11.63897 17.71181,21.30113 10.15309,10.41286 12.77789,13.80707 20.01279,25.87961 5.28061,8.81155 8.0114,14.65649 11.8277,25.31512 1.4669,4.0971 3.2131,10.85014 4.0024,15.47812 0.16129,0.94589 0.4009,2.31511 0.5324,3.04271 0.22841,1.26336 0.36599,2.35363 0.66791,5.29167 0.075,0.7276 0.2518,2.21588 0.3933,3.30729 0.40849,3.15018 0.41479,5.4978 0.034,12.7 -0.4799,9.07799 -0.273,31.50777 0.33298,36.11563 0.22971,1.74625 0.42011,3.20476 0.4232,3.24114 0,0.0364 -23.0033,0.0656 -51.12519,0.065 h -51.1308 l -1.6413,-1.46423 z m 107.11449,-1.11308 c -0.17039,-1.41883 -0.42418,-4.06797 -0.56409,-5.88698 -0.33459,-4.35197 -0.3325,-24.4067 0,-30.95625 0.34211,-6.67388 1.4459,-17.6118 2.26949,-22.48958 0.61161,-3.62236 0.81941,-4.66622 1.85671,-9.32656 0.62551,-2.81067 4.37941,-12.79978 6.18951,-16.47032 2.6153,-5.30325 7.28109,-11.88638 12.8679,-18.15557 4.82568,-5.41518 8.40359,-9.58874 10.0098,-11.6762 0.8677,-1.12781 1.7091,-2.05052 1.86978,-2.05052 0.16071,0 1.13671,0.98383 2.169,2.18636 2.53492,2.95283 11.22291,11.45728 14.4889,14.1827 16.52022,13.78601 40.6658,26.54718 64.55831,34.11963 9.2043,2.91719 19.6555,5.86756 20.78479,5.86756 0.2272,0 0.63191,0.15999 0.89932,0.35552 0.46419,0.33946 0.41849,0.58791 -1.0102,5.49011 -3.13992,10.77417 -5.2778,16.65282 -8.57621,23.58257 -1.49248,3.13571 -4.91601,9.46071 -6.26901,11.58222 -2.88919,4.53017 -4.03939,6.20596 -6.62839,9.65729 -3.03199,4.04201 -6.5722,8.37946 -9.0365,11.07154 l -1.36959,1.49617 h -52.1013 -52.10141 l -0.3099,-2.57969 z m 159.94031,-62.51456 c -19.5784,-1.20981 -39.01361,-5.08024 -54.391,-10.83167 -9.91331,-3.70774 -21.4512,-9.31074 -30.9734,-15.04127 -15.9425,-9.59416 -28.63009,-20.37477 -39.07261,-33.19992 -7.55658,-9.28076 -12.1113,-16.3631 -18.07178,-28.1006 -7.171,-14.12145 -10.88332,-26.5879 -12.8819,-43.2594 -0.5646,-4.7099 -0.63262,-15.59949 -0.13142,-21.03435 0.39632,-4.29686 1.6533,-11.26204 2.52412,-13.98683 0.3364,-1.05227 1.62288,-3.62426 2.906,-5.80961 7.5306,-12.82555 14.4648,-28.10153 21.15939,-46.614 5.15059,-14.24271 9.0932,-30.06715 11.1405,-44.71459 1.8167,-12.9976 2.15191,-31.4022 0.79761,-43.78854 -0.68741,-6.287 -3.3396,-21.0644 -5.3185,-29.63332 -1.27082,-5.5026 -4.269,-16.68068 -5.7722,-21.5206 -3.82032,-12.29964 -10.8871,-27.44046 -19.53191,-41.84711 -3.23731,-5.39493 -4.357,-7.02888 -9.33789,-13.62605 -8.43931,-11.17795 -16.7631,-20.53601 -23.0641,-25.93 -0.76401,-0.65401 -1.38911,-1.27856 -1.38911,-1.38789 0,-0.44887 1.8569,-0.11437 8.3658,1.50705 9.1239,2.27281 15.40981,3.60365 17.828,3.77448 1.30979,0.0925 2.70391,-0.006 4.10102,-0.29004 1.16419,-0.23661 4.73609,-0.73161 7.9375,-1.09998 7.10588,-0.81763 12.00919,-1.53899 24.24348,-3.56657 17.92761,-2.97112 24.96071,-3.5016 38.79881,-2.92645 7.43659,0.30908 10.5682,0.69628 15.02429,1.85767 10.0847,2.62834 21.4462,9.09343 26.7244,15.20715 3.41259,3.95283 5.98932,7.94474 8.72371,13.51517 5.64898,11.50795 8.3367,19.90576 11.75459,36.72821 0.73361,3.61066 1.33381,6.73605 1.33381,6.94532 0,0.64306 -0.62222,0.44754 -4.81279,-1.51244 -11.05051,-5.16826 -26.34322,-13.37035 -31.6924,-16.99784 -3.39122,-2.29965 -3.44681,-2.33463 -3.44681,-2.16708 0,0.52125 4.88598,4.16065 11.75369,8.75482 7.6409,5.11141 14.02951,8.32458 40.23691,20.23722 26.58999,12.08656 38.09309,17.93431 54.72319,27.81917 36.75581,21.84757 62.69331,42.46842 79.2213,62.98255 12.7268,15.79626 23.25449,33.81999 30.57271,52.34117 8.38949,21.23223 11.82759,39.34484 11.82759,62.30935 0,8.14242 -0.2663,13.13487 -1.07259,20.10836 -2.74381,23.73204 -10.8203,46.40313 -23.0173,64.61056 -5.21189,7.78023 -12.01632,16.04534 -19.3657,23.52305 -2.87531,2.92547 -5.2278,5.4656 -5.2278,5.64475 0,0.17912 0.52391,1.00026 1.16409,1.82473 2.7309,3.51684 3.72092,6.72015 3.5297,11.42087 -0.10509,2.58236 -0.24569,3.35452 -0.9294,5.10376 -1.67,4.27286 -4.23331,7.21333 -7.97899,9.15313 -3.0149,1.56133 -4.39721,1.88322 -8.0704,1.87915 -2.8448,-0.003 -3.4368,-0.0884 -5.4279,-0.78137 -2.96841,-1.03312 -6.21001,-3.25284 -8.28122,-5.67055 -0.88519,-1.03339 -1.71008,-1.91897 -1.83298,-1.96789 -0.1229,-0.0489 -1.5023,0.62013 -3.0653,1.4868 -9.62509,5.33701 -17.3473,8.6783 -26.06501,11.27794 -11.1089,3.31269 -23.90751,5.67537 -37.49878,6.92248 -5.39041,0.49461 -22.98621,0.72234 -28.67102,0.37105 z M 310.48523,565.81708 c -0.3652,-0.43399 -1.03912,-1.77342 -1.49762,-2.97656 -4.89778,-12.85166 -9.1572,-21.19389 -16.452,-32.22212 -4.45119,-6.72931 -6.50489,-9.17554 -15.67818,-18.67493 -3.80812,-3.94345 -7.8174,-8.2297 -8.9096,-9.525 -4.27521,-5.0701 -8.86471,-11.57872 -12.20201,-17.30401 -3.2404,-5.55903 -7.2438,-14.7746 -6.663,-15.33753 0.1315,-0.12742 1.5848,-0.72498 3.2296,-1.32789 6.3549,-2.32952 21.9363,-9.76384 27.43659,-13.09076 6.88631,-4.16531 13.36172,-8.84727 18.63151,-13.47121 5.57591,-4.89254 14.1006,-14.3016 17.692,-19.52736 0.792,-1.15239 1.73929,-1.79665 2.10471,-1.43129 0.086,0.0858 -0.041,1.79332 -0.2821,3.79447 -1.45381,12.07341 -1.2392,23.22875 0.63238,32.8749 1.40581,7.24493 4.4841,17.53973 7.4119,24.78762 2.20562,5.45984 5.68241,12.4219 9.88531,19.79467 4.7448,8.32324 6.62221,11.35891 9.85089,15.92866 1.35753,1.92127 2.46822,3.64993 2.46822,3.84154 0,0.56404 -3.94682,5.63724 -7.10322,9.13056 -5.06108,5.60123 -11.36478,13.65869 -14.66768,18.74848 -2.59,3.99124 -4.3117,7.59947 -6.65281,13.94296 -0.61479,1.66576 -1.61399,2.83382 -2.42409,2.83382 -0.39761,0 -1.02761,-0.40119 -1.67111,-1.06421 l -1.0328,-1.06423 -0.5597,0.90569 c -0.93689,1.51596 -2.478,1.7044 -3.54719,0.43373 z m 8.2898,-46.58643 c 5.30828,-0.48469 13.03049,-2.31621 15.0813,-3.57695 0.65339,-0.40169 0.6486,-0.405 -0.3969,-0.27374 -0.58211,0.0731 -2.368,0.36941 -3.9688,0.65852 -6.4442,1.16396 -19.3788,1.38433 -26.34189,0.44879 -1.6823,-0.22601 -4.52933,-0.71046 -6.32672,-1.07651 -1.7974,-0.36608 -3.31981,-0.61378 -3.3831,-0.55044 -0.1951,0.19502 1.81319,1.10244 4.0372,1.82422 7.49509,2.43245 14.01181,3.21149 21.29891,2.54611 z M 195.87612,474.79748 c -1.8918,-0.12377 -4.0945,-0.35139 -4.8948,-0.50583 -0.8004,-0.15441 -2.8245,-0.46559 -4.498,-0.69157 -3.6686,-0.49538 -7.011,-1.19168 -10.9502,-2.2811 -3.0047,-0.83098 -9.5042,-3.07917 -11.407,-3.94568 -0.5821,-0.26509 -2.6062,-1.15935 -4.498,-1.98721 -6.5619,-2.8716 -12.2853,-5.93934 -19.8437,-10.63622 -8.9688,-5.57324 -12.3446,-7.91919 -17.5948,-12.22714 -1.0914,-0.89556 -2.5797,-2.1087 -3.3073,-2.69597 -4.2127,-3.4 -13.3648,-12.30114 -17.0936,-16.62483 -5.472604,-6.34579 -10.417704,-14.19336 -12.110804,-19.21936 -2.064401,-6.12817 -1.1058,-13.31026 2.148401,-16.09569 0.789098,-0.67545 1.340998,-0.93284 1.999998,-0.93284 1.0843,0 6.661605,0.80288 12.885205,1.85486 2.4738,0.41818 8.5631,1.36438 13.5318,2.10262 6.6526,0.98851 10.0351,1.62245 12.8323,2.40509 7.6098,2.12926 18.2096,4.74395 23.3775,5.76675 6.9609,1.37758 7.4642,1.45886 7.1438,1.15324 -0.1455,-0.1388 -1.7529,-0.58155 -3.5719,-0.98388 -8.0385,-1.77805 -19.178,-5.05497 -26.0614,-7.66662 -7.9946,-3.03318 -15.2864,-6.03509 -19.3146,-7.95147 -0.7276,-0.34615 -3.1684,-1.47447 -5.424,-2.50743 -15.596203,-7.1424 -37.828505,-19.70505 -49.944601,-28.22183 -8.46921,-5.95326 -15.2176,-11.50649 -20.9819,-17.26602 -7.2785,-7.2725 -12.1334,-13.61655 -18.3232,-23.94363 -9.5222,-15.88677 -16.7225999,-36.54899 -19.08519995,-54.76697 -1.328,-10.2399 -1.14,-31.81022 0.36340005,-41.68931 1.7713,-11.64037 2.3098,-14.61263 3.6986,-20.41572 2.3334,-9.75025 6.2250999,-20.80466 10.4172999,-29.59053 1.6666,-3.49281 4.8574,-9.40074 6.216,-11.50938 4.5944,-7.1308 8.2721,-11.70778 14.7238,-18.32405 3.8676,-3.9662 8.7985,-8.56722 11.0685,-10.32801 0.5082,-0.39418 1.7432,-1.37592 2.7445,-2.18165 7.4823,-6.02096 19.283896,-13.23 28.146596,-17.19339 1.6734,-0.74839 3.638,-1.63809 4.365602,-1.97712 6.313098,-2.94156 18.371903,-6.808216 28.381103,-9.100386 6.3139,-1.4459 10.4336,-2.162299 16.0689,-2.79427 2.0373,-0.22847 4.5971,-0.52941 5.6885,-0.66874 3.5966,-0.459139 5.3903,-0.56625 13.1206,-0.783441 7.6606,-0.21525 21.9188,0.0562 25.9055,0.49317 14.1079,1.54637 18.652,2.22904 27.476,4.12778 13.3947,2.88222 25.3403,6.669107 35.9884,11.408687 12.1245,5.39669 24.3824,12.13122 34.26871,18.82728 3.9783,2.69454 8.57408,5.96336 9.71568,6.91038 0.45191,0.37492 1.45082,1.15793 2.21962,1.74001 11.5212,8.72242 25.61738,22.58405 33.60369,33.04457 6.90081,9.03866 11.07279,15.57513 16.48331,25.82523 1.96389,3.72049 5.76789,11.81239 6.59209,14.02291 0.29851,0.80037 0.6332,1.57427 0.7438,1.71979 0.23971,0.31533 3.05602,7.2667 4.2341,10.45105 5.75479,15.55474 10.5709,35.03509 12.29741,49.74165 1.6759,14.27491 1.87108,31.10477 0.5003,43.12709 -2.77342,24.32354 -11.8233,53.89351 -23.8705,77.99586 -13.9646,27.93817 -30.3876,47.98438 -50.05371,61.09626 -4.7652,3.17714 -16.328,9.38858 -21.2989,11.44169 -1.1642,0.48078 -2.9501,1.25802 -3.9688,1.72715 -1.0186,0.46916 -3.8863,1.57898 -6.3727,2.46631 -12.1109,4.32226 -21.1661,6.39104 -35.0346,8.00423 -2.9776,0.34634 -15.5288,0.51004 -19.4468,0.25363 z m -29.5011,-73.93723 c 0,-0.0642 -0.1374,-0.20164 -0.3055,-0.30546 -0.1892,-0.11697 -0.2336,-0.0726 -0.1166,0.11668 0.1885,0.30501 0.4221,0.40952 0.4221,0.18878 z m -1.3229,-0.41246 c 0,-0.14552 -0.1856,-0.26461 -0.4125,-0.26461 -0.2269,0 -0.3389,0.11909 -0.249,0.26461 0.09,0.14552 0.2756,0.26456 0.4125,0.26456 0.137,0 0.249,-0.11904 0.249,-0.26456 z m -57.0959,-14.55809 c -6.3939,-0.9362 -10.187803,-1.66552 -20.753404,-3.98952 -12.033801,-2.64697 -15.833799,-4.00325 -18.6327,-6.6503 -1.922499,-1.81824 -2.8391,-3.72647 -2.6847,-5.58877 0.204099,-2.46089 1.860201,-4.95564 3.644699,-5.49029 0.905502,-0.2713 1.063802,-0.20513 4.2443,1.77271 9.744602,6.06007 24.4646,13.56487 35.053705,17.87181 2.4739,1.00621 4.9742,2.05711 5.5563,2.3354 l 1.0583,0.50586 -1.1906,-0.0101 c -0.6549,-0.005 -3.488,-0.3461 -6.2959,-0.75721 z M 313.81843,128.95848 c -1.0527,-0.1225 -3.37442,-0.51871 -5.1594,-0.88048 -17.0959,-3.46481 -31.58551,-13.20829 -41.3416,-27.80001 -2.21562,-3.313665 -5.89071,-10.757325 -7.11941,-14.419796 -4.631,-13.803001 -4.7331,-27.949209 -0.2989,-41.407299 3.2563,-9.88335 8.3688,-18.18156 15.73599,-25.54165 10.15312,-10.1432803 22.23992,-16.1971003 36.78992,-18.42663034 4.22971,-0.64812 13.74018,-0.6424 17.99169,0.0108 12.1303,1.86382004 22.66701,6.47974004 32.01461,14.02499034 3.1655,2.55521 7.92448,7.51086 10.482,10.91532 9.4316,12.5547 13.97698,27.5436 13.05348,43.045077 -0.76158,12.785331 -5.12559,24.7148 -12.8424,35.106448 -2.63398,3.54696 -9.22099,10.13027 -12.8098,12.80269 -9.08698,6.7666 -19.52038,10.9897 -30.77139,12.45519 -3.38481,0.44089 -12.36149,0.50672 -15.72479,0.11533 z m 5.74569,-7.3154 c 0.3107,-0.40018 1.0373,-1.48062 1.61459,-2.40097 0.5774,-0.92035 1.19552,-1.6257 1.37361,-1.56743 0.1781,0.0583 0.48231,0.75175 0.6762,1.54108 0.44281,1.80352 1.17221,2.62576 2.32921,2.62576 0.55919,0 1.07,-0.21253 1.43078,-0.59531 0.68871,-0.73055 0.57632,-2.0586 -0.44878,-5.30361 -0.82942,-2.62549 -1.1878,-3.19353 -2.36861,-3.75388 -1.79559,-0.85204 -3.26231,0.006 -5.3749,3.14308 -1.71619,2.54871 -2.667,4.3911 -2.667,5.16765 0,1.73188 2.36659,2.51984 3.4349,1.14363 z m 7.68451,-16.21142 c 8.02229,-0.96711 16.11349,-4.32991 22.61499,-9.399097 13.4833,-10.512989 20.01779,-28.21958 16.64351,-45.099378 -4.42111,-22.11645 -24.48142,-37.94382 -46.84051,-36.95662 -16.63549,0.73449 -31.57239,10.61689 -38.8625,25.71183 -7.0797,14.65922 -5.8207,32.159397 3.28649,45.680359 3.6444,5.41079 7.27692,9.04221 12.69561,12.691899 5.89899,3.973167 13.42379,6.724367 20.40131,7.459087 2.06208,0.21713 7.9575,0.16552 10.0611,-0.0881 z m -4.9579,-32.969196 c -1.82991,-0.902232 -2.69621,-4.1661 -2.9056,-10.945949 -0.23932,-7.74948 0.57319,-11.60813 2.65308,-12.59994 3.01302,-1.43684 4.6523,2.00074 4.87302,10.21869 0.1342,4.998137 -0.37132,9.833289 -1.2314,11.777537 -0.39571,0.894741 -0.772,1.304779 -1.4614,1.59286 -1.10701,0.462532 -0.89231,0.467342 -1.9277,-0.0432 z"
       id="path1472" />
  </g>
</svg>
